# xmcd
#
# Track frame offsets: 
#        225
#        25572
#        46449
#        74702
#        96763
#        123947
#        150548
#        177585
#        207299
#        232765
#        255587
#
# Disc length: 3684 seconds
#
# Revision: 0
# Processed by: cddbd v1.5.2PL0 Copyright (c) Steve Scherf et al.
# Submitted via: ExactAudioCopyFreeDBPlugin 1.0
#
DISCID=8e0e610b
DTITLE=Fredrik Kronkvist - Altitude
DYEAR=2003
DGENRE=
TTITLE0=Zenith
TTITLE1=Litet Grann Från Ovan
TTITLE2=Desert Night
TTITLE3=Yamaya
TTITLE4=Leo
TTITLE5=Family Business
TTITLE6=Instinct
TTITLE7=Isis
TTITLE8=Kronk's Monk
TTITLE9=Theme For Ernie
TTITLE10=Close Race
EXTD=
EXTT0=
EXTT1=
EXTT2=
EXTT3=
EXTT4=
EXTT5=
EXTT6=
EXTT7=
EXTT8=
EXTT9=
EXTT10=
PLAYORDER=
